<svg xmlns="http://www.w3.org/2000/svg" width="24" height="24" viewBox="0 0 24 24">
  <path id="facebook-messenger-5" d="M12,24A12,12,0,0,1,3.515,3.515,12,12,0,1,1,20.485,20.485,11.922,11.922,0,0,1,12,24ZM12,2A10,10,0,1,0,22,12,10.011,10.011,0,0,0,12,2ZM8.236,18.5V16.382A5.391,5.391,0,0,1,6,12.056,5.8,5.8,0,0,1,12,6.5a5.8,5.8,0,0,1,6,5.556,5.8,5.8,0,0,1-6,5.556,6.478,6.478,0,0,1-1.721-.232L8.237,18.5Zm2.832-6.149h0L12.6,13.982l3.28-3.481-2.944,1.629L11.366,10.5,8.087,13.982l2.98-1.63Z" transform="translate(0 0)" fill="#fff"/>
</svg>
